<svg width="20" height="20" viewBox="0 0 20 20" fill="none" xmlns="http://www.w3.org/2000/svg">
<g clip-path="url(#clip0_2_15595)">
<path d="M0.0195312 17.96C0.0195312 13.048 0.0195312 8.13602 0.0195312 3.22402C0.0275312 3.18002 0.0395312 3.13202 0.0475312 3.08802C0.255531 1.93602 1.17953 1.16402 2.34753 1.16402C3.05953 1.16402 3.76753 1.16402 4.47953 1.16402C4.51553 1.16402 4.55153 1.16402 4.59153 1.16402C4.59153 1.05602 4.58753 0.96002 4.59153 0.86402C4.60753 0.50002 4.78353 0.24002 5.11553 0.0880195C5.18353 0.0560195 5.25552 0.0400195 5.32752 0.0200195C5.40752 0.0200195 5.49152 0.0200195 5.57152 0.0200195C5.58352 0.0240195 5.59552 0.0320195 5.60752 0.0360195C6.04352 0.13602 6.30352 0.46002 6.30752 0.90402C6.30752 0.98802 6.30752 1.07202 6.30752 1.15602C8.79152 1.15602 11.2595 1.15602 13.7355 1.15602C13.7355 1.05202 13.7315 0.95202 13.7355 0.85202C13.7515 0.52002 13.9075 0.26802 14.2035 0.11602C14.2875 0.0720195 14.3795 0.0520195 14.4675 0.0200195C14.5475 0.0200195 14.6315 0.0200195 14.7115 0.0200195C14.7235 0.0240195 14.7355 0.0320195 14.7475 0.0360195C15.1795 0.13602 15.4435 0.46002 15.4475 0.90402C15.4475 0.98802 15.4475 1.07202 15.4475 1.16402C15.4955 1.16402 15.5315 1.16402 15.5675 1.16402C16.2995 1.16402 17.0275 1.16002 17.7595 1.16402C18.7315 1.17202 19.5915 1.80002 19.8955 2.72002C19.9515 2.88802 19.9795 3.06802 20.0195 3.24402C20.0195 8.14002 20.0195 13.04 20.0195 17.936C20.0115 17.964 20.0035 17.992 19.9995 18.024C19.8555 18.94 19.3475 19.564 18.4795 19.888C18.3075 19.952 18.1195 19.976 17.9355 20.016C12.6555 20.016 7.37952 20.016 2.09953 20.016C2.07553 20.008 2.05553 20 2.03153 20C1.08753 19.856 0.455531 19.336 0.131531 18.44C0.0795312 18.288 0.0555312 18.12 0.0195312 17.96ZM6.30352 2.88402C6.30352 2.98802 6.31152 3.08402 6.29952 3.17602C6.28752 3.28802 6.27152 3.40002 6.22752 3.50002C6.07952 3.87602 5.67952 4.08002 5.27552 4.00002C4.88753 3.92402 4.59953 3.58002 4.59153 3.18002C4.58753 3.08002 4.59153 2.98002 4.59153 2.87602C4.02353 2.87602 3.47553 2.87602 2.92353 2.87602C2.22753 2.87602 1.73553 3.36802 1.73553 4.06402C1.73553 8.41202 1.73553 12.764 1.73553 17.112C1.73553 17.808 2.22753 18.3 2.92353 18.304C7.65552 18.304 12.3835 18.304 17.1155 18.304C17.8115 18.304 18.3075 17.812 18.3075 17.12C18.3075 12.768 18.3075 8.41202 18.3075 4.06002C18.3075 3.37202 17.8115 2.88002 17.1235 2.87602C16.5995 2.87602 16.0755 2.87602 15.5515 2.87602C15.5195 2.87602 15.4875 2.87602 15.4515 2.87602C15.4515 2.98802 15.4555 3.08802 15.4515 3.18802C15.4395 3.62402 15.0955 3.98402 14.6635 4.02002C14.2275 4.05202 13.8315 3.75202 13.7595 3.32002C13.7355 3.17602 13.7395 3.03202 13.7315 2.88002C11.2555 2.88402 8.78752 2.88402 6.30352 2.88402Z" fill="white"/>
<path d="M9.40367 12.888C9.42767 12.852 9.44367 12.812 9.47167 12.78C10.9117 11.34 12.3517 9.90002 13.7917 8.45602C14.0837 8.16402 14.4437 8.08802 14.7877 8.24002C15.2997 8.46802 15.4557 9.12802 15.0997 9.56402C15.0677 9.60002 15.0357 9.63602 15.0037 9.66802C13.3437 11.328 11.6837 12.984 10.0237 14.644C9.70367 14.964 9.28767 15.028 8.93967 14.812C8.87167 14.768 8.80768 14.716 8.75168 14.66C7.69968 13.612 6.64768 12.56 5.59968 11.508C5.17168 11.076 5.25568 10.404 5.77168 10.124C6.11168 9.94002 6.51168 10.004 6.80768 10.296C7.19968 10.684 7.58768 11.076 7.97568 11.464C8.41968 11.908 8.85968 12.348 9.30367 12.792C9.32767 12.816 9.35167 12.836 9.40367 12.888Z" fill="white"/>
</g>
<defs>
<clipPath id="clip0_2_15595">
<rect width="20" height="20" fill="white"/>
</clipPath>
</defs>
</svg>