<svg width="19" height="18" viewBox="0 0 19 18" fill="none" xmlns="http://www.w3.org/2000/svg">
<path d="M18.7111 15.6388L14.0273 11.3887C15.2316 10.1397 15.8914 8.56824 15.8914 6.93223C15.8914 3.10986 12.3269 0 7.94571 0C3.56452 0 0 3.10986 0 6.93223C0 10.7546 3.56452 13.8645 7.94571 13.8645C9.59048 13.8645 11.1579 13.4316 12.4979 12.61L17.2173 16.8923C17.4146 17.0711 17.6799 17.1696 17.9642 17.1696C18.2333 17.1696 18.4886 17.0801 18.6824 16.9174C19.0942 16.5716 19.1074 15.9984 18.7111 15.6388ZM7.94571 1.80841C11.1841 1.80841 13.8186 4.10689 13.8186 6.93223C13.8186 9.75756 11.1841 12.0561 7.94571 12.0561C4.70732 12.0561 2.07279 9.75756 2.07279 6.93223C2.07279 4.10689 4.70732 1.80841 7.94571 1.80841Z" fill="white"/>
</svg>