<svg width="39" height="39" viewBox="0 0 39 39" fill="none" xmlns="http://www.w3.org/2000/svg">
<path d="M27.6869 0L11.3134 0C9.73525 0 8.4502 1.28505 8.4502 2.86325L8.4502 36.1361C8.4502 37.715 9.73525 39 11.3134 39H27.6863C29.2652 39 30.5502 37.715 30.5502 36.1367L30.5502 2.86325C30.5502 1.28505 29.2652 0 27.6869 0ZM9.7502 5.2L29.2502 5.2V29.9H9.7502L9.7502 5.2ZM11.3134 1.3L27.6863 1.3C28.5488 1.3 29.2502 2.00135 29.2502 2.86325V3.9L9.7502 3.9V2.86325C9.7502 2.00135 10.4515 1.3 11.3134 1.3ZM27.6869 37.7H11.3134C10.4515 37.7 9.7502 36.9986 9.7502 36.1367V31.2H29.2502L29.2502 36.1367C29.2502 36.9986 28.5488 37.7 27.6869 37.7Z" fill="#9A9A9A"/>
<path d="M19.5004 31.8501C18.0665 31.8501 16.9004 33.0162 16.9004 34.4501C16.9004 35.884 18.0665 37.0501 19.5004 37.0501C20.9343 37.0501 22.1004 35.884 22.1004 34.4501C22.1004 33.0162 20.9343 31.8501 19.5004 31.8501ZM19.5004 35.7501C18.7834 35.7501 18.2004 35.167 18.2004 34.4501C18.2004 33.7331 18.7834 33.1501 19.5004 33.1501C20.2173 33.1501 20.8004 33.7331 20.8004 34.4501C20.8004 35.167 20.2173 35.7501 19.5004 35.7501Z" fill="#9A9A9A"/>
<path d="M16.9 3.2502H19.5C19.8594 3.2502 20.15 2.95965 20.15 2.6002C20.15 2.24075 19.8594 1.9502 19.5 1.9502L16.9 1.9502C16.5405 1.9502 16.25 2.24075 16.25 2.6002C16.25 2.95965 16.5405 3.2502 16.9 3.2502Z" fill="#9A9A9A"/>
<path d="M21.4498 3.2502H22.0998C22.4593 3.2502 22.7498 2.95965 22.7498 2.6002C22.7498 2.24075 22.4593 1.9502 22.0998 1.9502H21.4498C21.0904 1.9502 20.7998 2.24075 20.7998 2.6002C20.7998 2.95965 21.0904 3.2502 21.4498 3.2502Z" fill="#9A9A9A"/>
<path d="M36.7982 2.96991C36.544 2.71576 36.1332 2.71576 35.8791 2.96991C35.6249 3.22406 35.6249 3.63486 35.8791 3.88901C38.3075 6.31741 38.3075 10.2688 35.8791 12.6978C35.6249 12.952 35.6249 13.3628 35.8791 13.6169C36.0058 13.7437 36.1722 13.8074 36.3386 13.8074C36.505 13.8074 36.6714 13.7437 36.7982 13.6169C39.7336 10.6822 39.7336 5.90531 36.7982 2.96991Z" fill="#9A9A9A"/>
<path d="M34.0609 4.4494C33.8067 4.19525 33.3959 4.19525 33.1418 4.4494C32.8876 4.70355 32.8876 5.11435 33.1418 5.3685C33.9458 6.17255 34.3885 7.24375 34.3885 8.38385C34.3885 9.52395 33.9458 10.5945 33.1418 11.3986C32.8876 11.6527 32.8876 12.0635 33.1418 12.3177C33.2685 12.4444 33.4349 12.5081 33.6013 12.5081C33.7677 12.5081 33.9341 12.4444 34.0609 12.3177C35.1106 11.2686 35.6885 9.87105 35.6885 8.38385C35.6885 6.89665 35.1113 5.4985 34.0609 4.4494Z" fill="#9A9A9A"/>
<path d="M3.12163 3.88901C3.37578 3.63486 3.37578 3.22406 3.12163 2.96991C2.86748 2.71576 2.45668 2.71576 2.20253 2.96991C-0.732873 5.90531 -0.732873 10.6815 2.20253 13.6169C2.32928 13.7437 2.49568 13.8074 2.66208 13.8074C2.82848 13.8074 2.99488 13.7437 3.12163 13.6169C3.37578 13.3628 3.37578 12.952 3.12163 12.6978C0.692576 10.2694 0.692576 6.31806 3.12163 3.88901Z" fill="#9A9A9A"/>
<path d="M5.85822 4.26971C5.60407 4.01556 5.19327 4.01556 4.93912 4.26971C3.88937 5.31881 3.31152 6.71631 3.31152 8.20351C3.31152 9.69071 3.88937 11.0882 4.93912 12.138C5.06587 12.2647 5.23227 12.3284 5.39867 12.3284C5.56507 12.3284 5.73147 12.2647 5.85822 12.138C6.11237 11.8838 6.11237 11.473 5.85822 11.2189C5.05417 10.4148 4.61152 9.34361 4.61152 8.20351C4.61152 7.06341 5.05352 5.99286 5.85822 5.18881C6.11172 4.93531 6.11172 4.52386 5.85822 4.26971Z" fill="#9A9A9A"/>
</svg>