<svg width="19" height="18" viewBox="0 0 19 18" fill="none" xmlns="http://www.w3.org/2000/svg">
<path d="M18.7231 6.83507C18.6585 6.63491 18.4866 6.48904 18.2797 6.45882L12.4671 5.60878L9.86758 0.308139C9.77508 0.119445 9.5841 0 9.37503 0C9.16592 0 8.97498 0.119445 8.88244 0.308139L6.28279 5.60878L0.470318 6.45882C0.263446 6.48904 0.0915109 6.63491 0.0269116 6.83503C-0.0377244 7.03519 0.0161816 7.25488 0.165925 7.40174L4.37177 11.5277L3.37905 17.3538C3.34367 17.5612 3.42841 17.7707 3.59756 17.8944C3.69325 17.9644 3.8066 18 3.92049 18C4.00794 18 4.09568 17.979 4.17603 17.9365L9.37499 15.1858L14.5737 17.9365C14.7589 18.0344 14.9831 18.0181 15.1522 17.8944C15.3214 17.7707 15.4062 17.5611 15.3708 17.3537L14.3778 11.5277L18.5841 7.4017C18.7338 7.25488 18.7877 7.03519 18.7231 6.83507Z" fill="#FFD600"/>
</svg>
