<svg width="19" height="20" viewBox="0 0 19 20" fill="none" xmlns="http://www.w3.org/2000/svg">
<path d="M18.081 13.0948C17.9224 12.8861 17.7083 12.7231 17.4645 12.6265C17.0379 12.4576 16.5749 12.4927 16.1857 12.7175L13.6157 14.2013C13.6011 14.418 13.56 14.637 13.4881 14.854C13.0463 16.1867 11.62 16.9251 10.2638 16.5617L7.72337 15.881C7.4108 15.7973 7.22529 15.476 7.30904 15.1634C7.39279 14.8508 7.71408 14.6653 8.02666 14.7491L10.6059 15.4402C11.3873 15.6495 12.1906 15.1858 12.3999 14.4044C12.6093 13.6229 12.1456 12.8197 11.3642 12.6103L7.42638 11.5552C6.67048 11.3527 5.88099 11.4566 5.2033 11.8479L0.293067 14.6828C0.0128328 14.8446 -0.0832218 15.203 0.078614 15.4832L2.51713 19.7069C2.59482 19.8415 2.72279 19.9396 2.87291 19.9799C3.02303 20.0201 3.18295 19.9991 3.31752 19.9213L5.53193 18.6428L10.2687 18.9484C10.8478 18.9857 11.4195 18.8521 11.9221 18.5619L17.6506 15.2547C18.4043 14.8194 18.625 13.8109 18.081 13.0948Z" fill="#969696"/>
<path d="M5.28516 9.37498H13.0976C13.4212 9.37498 13.6836 9.11263 13.6836 8.78904C13.6836 7.23385 12.8891 5.86084 11.6847 5.0542C11.0358 5.67373 10.1573 6.05467 9.1914 6.05467C8.22554 6.05467 7.34699 5.67373 6.69808 5.0542C5.49375 5.86084 4.69922 7.23385 4.69922 8.78904C4.69922 9.11263 4.96156 9.37498 5.28516 9.37498Z" fill="#969696"/>
<path d="M9.1914 4.88281C10.5398 4.88281 11.6328 3.78976 11.6328 2.4414C11.6328 1.09305 10.5398 0 9.1914 0C7.84305 0 6.75 1.09305 6.75 2.4414C6.75 3.78976 7.84305 4.88281 9.1914 4.88281Z" fill="#969696"/>
</svg>