<svg width="20" height="20" viewBox="0 0 20 20" fill="none" xmlns="http://www.w3.org/2000/svg">
<path d="M15.7492 0.693185C15.2516 0.224874 14.6148 0 13.973 0C13.2506 0 12.521 0.284841 11.977 0.829537L11.7436 1.06298L11.5101 0.828823C10.9661 0.284841 10.2365 0 9.51409 0C8.87231 0 8.23552 0.224874 7.73794 0.693185C6.64356 1.72332 6.62428 3.44665 7.67941 4.50177L11.7436 8.56593L15.8077 4.50177C16.8628 3.44665 16.8436 1.72332 15.7492 0.693185Z" fill="#969696"/>
<path d="M19.739 10.6352C19.1144 10.2119 18.3783 10.3318 17.7266 10.708C17.0748 11.0842 13.3326 14.2839 13.3326 14.2839L9.64891 14.2846C9.47758 14.2846 9.29197 14.0919 9.29197 13.9212C9.29197 13.7206 9.46687 13.5643 9.64891 13.5643H11.9027C12.6915 13.5643 13.5746 13.0503 13.5746 12.1365C13.5746 11.1656 12.6915 10.7087 11.9027 10.7087C10.5341 10.7087 10.2679 10.7145 10.2679 10.7145C9.71959 10.7145 9.16347 10.6816 8.73513 10.4525C8.16402 10.1598 7.50582 9.99414 6.80335 9.99414C5.62401 9.99414 4.56817 10.4646 3.84429 11.2063L0 14.9914L4.28333 19.2747L5.7111 17.8469H12.9406C13.6602 17.8469 14.3549 17.5828 14.8924 17.1052L19.7875 11.614C20.0867 11.3484 20.0695 10.8601 19.739 10.6352Z" fill="#969696"/>
</svg>