<svg width="21" height="20" viewBox="0 0 21 20" fill="none" xmlns="http://www.w3.org/2000/svg">
<path d="M20.936 7.59452C20.8637 7.37213 20.6716 7.21005 20.4402 7.17647L13.9406 6.23198L11.0338 0.342376C10.9304 0.132716 10.7169 0 10.4831 0C10.2493 0 10.0357 0.132716 9.93226 0.342376L7.02536 6.23198L0.525905 7.17647C0.294583 7.21005 0.102327 7.37213 0.0300923 7.59448C-0.0421831 7.81688 0.0180941 8.06097 0.185535 8.22416L4.88847 12.8086L3.77842 19.282C3.73886 19.5124 3.83362 19.7453 4.02276 19.8827C4.12976 19.9604 4.2565 20 4.38385 20C4.48164 20 4.57975 19.9767 4.6696 19.9294L10.483 16.8731L16.2962 19.9294C16.5032 20.0382 16.754 20.0201 16.9431 19.8827C17.1322 19.7453 17.227 19.5123 17.1875 19.2819L16.0771 12.8086L20.7806 8.22411C20.948 8.06097 21.0083 7.81687 20.936 7.59452Z" fill="#969696"/>
</svg>