<svg width="374" height="406" viewBox="0 0 374 406" fill="none" xmlns="http://www.w3.org/2000/svg">
<path opacity="0.5" d="M49.5007 273C56.5008 150 149.587 151.57 175.341 153.446C201.094 155.322 227.977 184.393 219.543 197.454C211.109 210.516 191.428 206.013 180.543 187.294C166.992 163.991 170.492 154.813 179.26 134.563C188.029 114.314 236.539 92.7658 268.331 102.203C300.124 111.641 325.501 128.5 342.501 158.5" stroke="#767676" stroke-linejoin="round" stroke-dasharray="6 4"/>
<circle cx="342.894" cy="159.363" r="7" transform="rotate(26.051 342.894 159.363)" fill="#454545"/>
<circle cx="342.894" cy="159.363" r="3" transform="rotate(26.051 342.894 159.363)" fill="white"/>
<path d="M96.7155 158.536L93.7406 171.865L90.1257 174.16C89.555 174.522 89.0604 175.014 88.6825 175.604L88.4486 176.013C88.1154 176.532 88.1135 177.176 88.4435 177.696C88.7735 178.215 89.3572 178.488 89.942 178.41L90.4634 178.366C91.1329 178.278 91.7875 178.04 92.359 177.677L95.9739 175.382L109.298 178.358C109.977 178.51 110.673 178.388 111.261 178.015L112.291 177.361C112.452 177.259 112.544 177.077 112.531 176.888C112.519 176.698 112.404 176.529 112.231 176.449L101.659 171.534C102.937 170.607 103.977 169.791 105.243 168.798L106.539 167.779L110.528 169.566C110.689 169.637 110.873 169.624 111.021 169.53L111.9 168.972C112.033 168.888 112.121 168.747 112.139 168.59C112.157 168.432 112.102 168.275 111.991 168.165L108.679 164.848L107.086 160.44C107.073 160.404 107.057 160.37 107.036 160.338C106.973 160.239 106.879 160.163 106.765 160.124C106.615 160.074 106.45 160.094 106.317 160.178L105.437 160.737C105.29 160.83 105.199 160.992 105.196 161.167L105.12 165.536L103.642 166.278C102.206 166.999 101.026 167.593 99.6437 168.356L99.6903 156.698C99.6917 156.506 99.5872 156.332 99.422 156.241C99.2555 156.148 99.052 156.154 98.8911 156.256L97.8605 156.91C97.2731 157.283 96.8664 157.861 96.7155 158.536Z" fill="#454545"/>
<circle cx="49.5" cy="272.5" r="8.5" fill="white"/>
<path d="M61.39 268.325C60.2359 264.687 57.1967 261.725 53.4652 260.6C52.1572 260.206 50.8107 260 49.5027 260C46.8291 260 44.2517 260.806 42.0973 262.381C38.9042 264.669 37 268.325 37 272.188C37 274.85 37.8656 277.381 39.5005 279.5L49.5027 292L59.5049 279.5C61.9477 276.313 62.6402 272.244 61.39 268.325ZM49.5027 278.75C45.7904 278.75 42.7705 275.806 42.7705 272.188C42.7705 268.569 45.7904 265.625 49.5027 265.625C53.2151 265.625 56.235 268.569 56.235 272.188C56.235 275.806 53.2151 278.75 49.5027 278.75Z" fill="#454545"/>
</svg>
