<svg width="16" height="16" viewBox="0 0 16 16" fill="none" xmlns="http://www.w3.org/2000/svg">
<g opacity="0.2">
<path d="M15.8983 7.68882C15.7554 7.49329 12.3496 2.90112 7.99992 2.90112C3.65019 2.90112 0.244313 7.49329 0.101531 7.68863C-0.0338438 7.87413 -0.0338438 8.12573 0.101531 8.31123C0.244313 8.50676 3.65019 13.0989 7.99992 13.0989C12.3496 13.0989 15.7554 8.50673 15.8983 8.31138C16.0339 8.12592 16.0339 7.87413 15.8983 7.68882ZM7.99992 12.044C4.79588 12.044 2.02085 8.99607 1.19938 7.99966C2.01979 7.00238 4.78901 3.95606 7.99992 3.95606C11.2038 3.95606 13.9787 7.00344 14.8005 8.00038C13.9801 8.99763 11.2108 12.044 7.99992 12.044Z" fill="black"/>
<path d="M7.9998 4.83496C6.25474 4.83496 4.83496 6.25474 4.83496 7.99981C4.83496 9.74488 6.25474 11.1647 7.9998 11.1647C9.74487 11.1647 11.1646 9.74488 11.1646 7.99981C11.1646 6.25474 9.74487 4.83496 7.9998 4.83496ZM7.9998 10.1097C6.83637 10.1097 5.88993 9.16322 5.88993 7.99981C5.88993 6.8364 6.8364 5.88993 7.9998 5.88993C9.16321 5.88993 10.1097 6.8364 10.1097 7.99981C10.1097 9.16322 9.16324 10.1097 7.9998 10.1097Z" fill="black"/>
</g>
</svg>
