<svg width="20" height="20" viewBox="0 0 20 20" fill="none" xmlns="http://www.w3.org/2000/svg">
<path d="M19.4284 2.73421C19.1342 2.43948 18.6568 2.43897 18.3626 2.73296L9.31989 11.7518L6.05731 8.20831C5.7754 7.9023 5.29876 7.88245 4.99224 8.16433C4.68595 8.44624 4.66634 8.92312 4.94825 9.2294L8.74224 13.3498C8.88118 13.5008 9.07564 13.5885 9.28067 13.5927C9.28618 13.593 9.29149 13.593 9.29677 13.593C9.49603 13.593 9.68771 13.5138 9.82892 13.3731L19.4269 3.80026C19.7219 3.50632 19.7224 3.02894 19.4284 2.73421Z" fill="white"/>
<path d="M19.2462 9.24621C18.8299 9.24621 18.4925 9.58363 18.4925 10C18.4925 14.6829 14.6829 18.4925 10 18.4925C5.31734 18.4925 1.50754 14.6829 1.50754 10C1.50754 5.31734 5.31734 1.50754 10 1.50754C10.4163 1.50754 10.7538 1.17012 10.7538 0.753789C10.7538 0.337422 10.4163 0 10 0C4.48594 0 0 4.48594 0 10C0 15.5138 4.48594 20 10 20C15.5138 20 20 15.5138 20 10C20 9.58367 19.6626 9.24621 19.2462 9.24621Z" fill="white"/>
</svg>
