<svg width="406" height="406" viewBox="0 0 406 406" fill="none" xmlns="http://www.w3.org/2000/svg">
<g opacity="0.3" clip-path="url(#clip0_2_17514)">
<path opacity="0.85" d="M373.439 119.689C367.998 130.245 364.669 141.775 361.827 153.224C356.224 175.879 352.083 200.402 336.899 218.996C330.159 227.279 320.984 233.694 310.752 236.698C299.709 239.946 288.91 238.484 279.084 232.557C274.212 229.634 269.665 226.223 264.55 223.787C259.84 221.595 254.643 220.377 249.446 220.214C237.997 219.89 226.873 223.868 216.966 229.228C206.086 235.155 196.179 242.707 185.38 248.716C174.58 254.724 162.725 258.784 150.545 260.652C129.108 263.9 104.829 261.058 87.3712 247.254C78.6828 240.352 72.9988 231.176 70.644 220.296C68.0456 208.278 68.1268 195.854 65.6908 183.756C63.336 171.738 59.5196 160.045 54.4852 148.921C49.8568 138.771 44.4164 129.189 34.916 122.856C30.2876 119.77 25.2532 117.334 20.706 114.086C16.24 110.919 12.586 106.859 9.74405 102.15C4.38483 93.1365 2.35486 82.5805 1.38046 72.2681C1.29926 71.7809 1.29926 71.3749 1.29926 70.8877L0.162445 70.8877C1.46164 86.2345 4.95325 101.906 16.646 112.218C25.3344 119.851 36.7025 123.18 44.0104 132.518C51.6432 142.262 56.434 154.767 60.1692 166.46C64.148 178.884 66.2592 191.551 67.4772 204.462C68.5328 215.748 69.9132 227.198 76.328 236.779C86.9652 252.694 106.697 260.49 125.129 262.276C149.733 264.631 173.281 257.729 193.987 244.737C213.962 232.151 238.809 212.988 263.656 224.274C273.725 228.903 281.764 237.023 293.051 238.809C302.47 240.271 312.133 237.997 320.496 233.612C340.309 223.219 350.053 202.026 355.981 181.482C362.639 158.178 365.4 133.087 378.798 112.381C385.7 101.825 395.119 92.7305 406 85.8285L406 84.5293C400.884 87.6961 396.094 91.3501 391.709 95.4913C384.32 102.474 378.067 110.594 373.439 119.689Z" fill="white"/>
<path opacity="0.85" d="M66.5029 103.855C73.3237 112.624 77.3837 123.992 80.7129 134.548C84.2857 145.835 86.3157 157.447 87.3713 169.302C88.2645 179.614 88.9953 190.333 94.1109 199.59C102.393 214.612 119.283 222.813 135.767 224.924C157.528 227.685 178.721 221.432 196.748 209.415C214.206 197.803 236.454 178.965 258.622 190.17C267.148 194.474 273.969 201.782 283.713 203.406C292.076 204.786 300.684 202.513 307.992 198.29C325.368 188.303 333.407 168.652 338.36 150.139C344.044 129.027 346.318 106.372 357.524 87.2087C360.934 81.3623 365.156 75.9219 369.947 71.1311L368.404 71.1311C354.519 85.5035 348.023 103.855 343.476 123.018C338.685 143.399 335.437 165.242 323.014 182.7C317.248 190.82 309.372 197.397 299.872 200.645C290.209 203.974 280.627 202.838 271.939 197.478C267.716 194.799 263.819 191.713 259.353 189.358C255.293 187.247 250.827 186.029 246.198 185.786C236.211 185.298 226.467 188.952 217.941 193.824C208.359 199.346 199.752 206.329 190.252 212.013C180.589 217.778 169.87 221.757 158.746 223.462C139.583 226.386 117.984 223.056 103.205 209.577C95.6537 202.675 91.5125 193.662 89.8073 183.674C87.9397 172.631 87.7773 161.426 85.5849 150.463C83.4737 139.583 80.1445 129.027 75.7597 118.877C71.6997 109.62 66.9901 101.013 58.4641 95.1663C54.0793 92.1619 49.2885 89.7259 45.1473 86.2343C41.6557 83.3111 38.8949 79.6571 36.7837 75.5971C36.0529 74.1355 35.3221 72.6739 34.7537 71.1311L33.5357 71.1311C35.4845 76.1655 38.2453 80.7939 42.0617 84.8539C49.5321 92.3243 60.0069 95.4911 66.5029 103.855Z" fill="white"/>
<path opacity="0.85" d="M84.7724 83.2299C91.0248 91.1063 94.5164 101.5 97.4396 110.919C100.444 120.744 102.312 130.813 103.205 140.963C104.017 150.139 104.423 159.558 108.402 168.003C114.816 181.726 129.27 189.764 143.805 192.038C162.237 194.88 180.67 189.764 196.016 179.533C211.12 169.464 230.364 151.276 250.014 160.776C257.728 164.511 263.575 171.413 272.344 173.037C279.49 174.336 286.798 172.388 293.05 168.815C308.154 160.045 315.137 142.75 319.44 126.672C324.394 108.158 326.261 88.3455 335.274 71.1311L334.219 71.1311C329.59 80.2255 326.586 90.1319 324.312 100.201C320.171 118.471 317.492 138.121 306.854 154.118C301.901 161.507 295.08 167.678 286.636 170.682C278.11 173.687 269.746 172.469 262.276 167.516C255.049 162.725 248.796 157.528 239.702 157.284C231.095 157.041 222.731 160.451 215.504 164.836C207.222 169.87 199.752 176.204 191.469 181.238C183.024 186.354 173.605 189.764 163.861 191.145C147.215 193.5 128.458 189.927 116.359 177.503C109.701 170.682 106.696 161.913 105.478 152.656C104.26 143.237 103.936 133.818 102.068 124.48C100.2 115.223 97.4396 106.128 93.7856 97.3587C90.3752 89.2387 86.3152 81.6059 79.0072 76.4091C76.49 74.5415 73.7292 72.9987 71.1308 71.2123L69.3444 71.2123C74.46 75.0287 80.55 78.0331 84.7724 83.2299Z" fill="white"/>
<path opacity="0.85" d="M121.069 114.086C121.8 122.368 121.962 130.894 125.21 138.69C130.245 150.707 141.775 158.502 154.361 160.938C170.114 163.943 186.029 159.233 198.94 150.139C211.688 141.044 228.659 123.505 245.711 133.249C252.045 136.822 256.836 142.75 264.387 143.968C270.558 144.942 276.73 142.912 281.845 139.583C294.594 131.219 300.034 115.548 303.526 101.5C305.962 91.5936 307.504 81.2812 309.94 71.2124L308.885 71.2124C308.398 72.9988 307.992 74.7852 307.586 76.6528C304.094 92.8928 302.064 110.107 293.7 124.804C286.392 137.634 270.721 149.164 256.348 139.664C250.015 135.523 245.062 130.164 237.104 129.595C229.471 129.027 222.082 132.275 215.83 136.335C208.846 140.882 202.594 146.566 195.611 151.113C188.546 155.742 180.67 158.908 172.306 160.208C157.69 162.4 141.532 158.746 131.625 147.216C125.941 140.638 123.83 132.437 122.937 123.992C122.044 115.548 121.638 107.184 120.014 98.8204C118.39 90.4568 116.035 82.2556 112.868 74.298C112.462 73.2424 112.056 72.1868 111.569 71.2124L110.594 71.2124C112.949 76.328 114.654 81.8496 116.116 87.0464C118.714 95.816 120.338 104.91 121.069 114.086Z" fill="white"/>
<path opacity="0.85" d="M142.262 111.325C145.916 120.988 154.523 127.728 164.43 130.001C177.016 132.924 190.089 129.189 200.401 121.719C210.633 114.33 224.355 98.9016 238.241 107.346C243.113 110.351 246.848 115.06 252.775 116.116C257.566 116.928 262.519 115.304 266.498 112.706C276.648 105.966 281.033 93.2989 283.794 81.9309C284.687 78.3581 285.418 74.704 286.067 71.05L285.012 71.05C283.144 80.7941 281.114 90.6193 276.486 99.4701C270.802 110.27 258.216 120.582 246.198 112.056C241.651 108.808 237.835 104.748 231.988 104.098C225.898 103.368 219.808 105.966 214.774 109.295C209.252 112.949 204.461 117.578 199.021 121.394C193.175 125.535 186.597 128.377 179.533 129.514C167.515 131.382 154.442 127.809 146.891 117.821C142.749 112.3 141.288 105.641 140.638 98.9017C139.989 92.162 139.583 85.5036 138.365 78.8452C137.877 76.2468 137.309 73.6484 136.659 71.1312L135.523 71.1312C137.228 77.8708 138.365 84.7728 138.933 91.756C139.664 98.3332 139.907 105.073 142.262 111.325Z" fill="white"/>
<path opacity="0.85" d="M173.849 101.013C183.269 103.368 193.256 100.607 200.97 95.0039C209.009 89.2387 219.646 76.1655 230.689 82.5803C234.749 84.9351 237.591 89.0763 242.545 89.8883C246.199 90.4567 249.934 89.2387 252.938 87.2087C258.46 83.4735 261.789 77.4647 264.062 71.1311L262.926 71.1311C262.357 72.5927 261.789 74.0543 261.058 75.4347C256.673 84.6103 246.605 93.5424 236.779 85.9095C233.288 83.2299 230.365 80.2255 225.736 79.9007C221.351 79.5759 217.129 81.3623 213.556 83.7171C209.171 86.5591 205.436 90.3755 201.214 93.4611C196.829 96.7091 191.795 99.2263 186.354 100.12C176.61 101.825 166.054 98.8203 160.289 90.4567C156.96 85.7471 156.148 79.9819 155.661 74.3791C155.579 73.2423 155.498 72.1055 155.417 70.9687L154.361 70.9687C154.686 76.0031 155.011 81.1187 156.797 85.9095C159.558 93.5423 166.135 99.0639 173.849 101.013Z" fill="white"/>
</g>
<defs>
<clipPath id="clip0_2_17514">
<rect width="406" height="406" fill="white" transform="translate(406) rotate(90)"/>
</clipPath>
</defs>
</svg>
