<svg width="61" height="59" viewBox="0 0 61 59" fill="none" xmlns="http://www.w3.org/2000/svg">
<path d="M59.3668 22.8038C59.6426 23.9923 59.8433 25.2084 59.9639 26.4473L59.3667 26.5054C59.4535 27.3969 59.4979 28.3006 59.4979 29.2146C59.4979 30.1286 59.4535 31.0323 59.3667 31.9238L59.9639 31.9819C59.8433 33.2208 59.6426 34.4369 59.3668 35.6254L58.7823 35.4898C58.3696 37.2683 57.7852 38.9836 57.0467 40.6185L57.5936 40.8655C57.0852 41.9911 56.5053 43.0792 55.8597 44.1245L55.3492 43.8092C54.3979 45.3494 53.3004 46.7949 52.0752 48.1275L52.5169 48.5336C51.6847 49.4387 50.7951 50.2926 49.8534 51.0899L49.4657 50.632C48.0911 51.7959 46.6033 52.8368 45.0205 53.737L45.3171 54.2585C44.2522 54.8642 43.1451 55.4074 42.0013 55.883L41.7709 55.329C40.1182 56.0163 38.3869 56.5595 36.5937 56.9425L36.719 57.5293C35.5272 57.7838 34.3087 57.969 33.0682 58.0802L33.0147 57.4826C32.121 57.5627 31.2154 57.6036 30.2999 57.6036C29.3844 57.6036 28.4789 57.5627 27.5852 57.4826L27.5317 58.0802C26.2911 57.969 25.0726 57.7838 23.8809 57.5293L24.0062 56.9425C22.213 56.5595 20.4817 56.0163 18.8289 55.329L18.5986 55.883C17.4547 55.4074 16.3477 54.8642 15.2827 54.2585L15.5794 53.737C13.9966 52.8368 12.5088 51.7959 11.1342 50.632L10.7465 51.0899C9.80482 50.2926 8.91512 49.4387 8.08301 48.5336L8.5247 48.1275C7.29949 46.7949 6.20197 45.3494 5.25063 43.8092L4.74016 44.1245C4.09452 43.0792 3.51471 41.9911 3.00631 40.8655L3.55312 40.6185C2.81467 38.9836 2.23023 37.2683 1.81754 35.4898L1.23307 35.6254C0.957296 34.4369 0.75656 33.2208 0.635963 31.9819L1.23314 31.9238C1.14635 31.0323 1.10195 30.1286 1.10195 29.2146C1.10195 28.3006 1.14635 27.3969 1.23314 26.5054L0.635963 26.4473C0.756559 25.2084 0.957295 23.9923 1.23307 22.8038L1.81754 22.9394C2.23023 21.1609 2.81467 19.4456 3.55312 17.8107L3.00631 17.5637C3.51471 16.4381 4.09452 15.35 4.74015 14.3047L5.25063 14.62C6.20197 13.0798 7.29949 11.6343 8.52469 10.3017L8.083 9.8956C8.91512 8.99053 9.80481 8.13662 10.7465 7.33931L11.1342 7.79722C12.5088 6.63333 13.9966 5.59242 15.5794 4.69222L15.2827 4.17067C16.3477 3.56499 17.4547 3.02176 18.5986 2.54615L18.8289 3.10016C20.4817 2.41292 22.213 1.86967 24.0062 1.48667L23.8809 0.899902C25.0726 0.645354 26.2911 0.460204 27.5317 0.349027L27.5852 0.946632C28.4789 0.866537 29.3844 0.825586 30.2999 0.825586C31.2154 0.825586 32.1209 0.866537 33.0147 0.946631L33.0682 0.349026C34.3087 0.460203 35.5272 0.645353 36.719 0.899901L36.5937 1.48667C38.3869 1.86967 40.1182 2.41292 41.7709 3.10016L42.0013 2.54615C43.1451 3.02176 44.2522 3.56499 45.3171 4.17067L45.0205 4.69222C46.6033 5.59242 48.0911 6.63332 49.4657 7.79722L49.8534 7.33931C50.795 8.13662 51.6847 8.99053 52.5169 9.89559L52.0752 10.3017C53.3004 11.6343 54.3979 13.0798 55.3492 14.62L55.8597 14.3047C56.5053 15.35 57.0852 16.4381 57.5936 17.5637L57.0467 17.8107C57.7852 19.4456 58.3696 21.1609 58.7823 22.9394L59.3668 22.8038Z" fill="white" stroke="#969696" stroke-width="1.2" stroke-dasharray="6 4"/>
<path d="M41.8119 33.1999C41.5976 32.9275 41.3084 32.7149 40.9791 32.589C40.4029 32.3686 39.7775 32.4145 39.2517 32.7076L35.7801 34.6432C35.7604 34.926 35.7048 35.2116 35.6077 35.4947C35.011 37.2332 33.0842 38.1964 31.2523 37.7224L27.8206 36.8344C27.3984 36.7252 27.1478 36.3061 27.2609 35.8983C27.374 35.4905 27.808 35.2486 28.2303 35.3578L31.7143 36.2593C32.7699 36.5325 33.855 35.9276 34.1378 34.9082C34.4206 33.8888 33.7942 32.841 32.7386 32.5678L27.4194 31.1914C26.3983 30.9272 25.3319 31.0628 24.4164 31.5732L17.7836 35.2714C17.405 35.4824 17.2753 35.9499 17.4939 36.3155L20.7879 41.8252C20.8928 42.0008 21.0657 42.1289 21.2685 42.1813C21.4713 42.2338 21.6873 42.2064 21.8691 42.105L24.8603 40.4372L31.2589 40.8358C32.0412 40.8844 32.8135 40.7101 33.4923 40.3316L41.2304 36.0173C42.2486 35.4496 42.5468 34.134 41.8119 33.1999V33.1999Z" fill="#969696"/>
<path d="M24.5268 28.3473H35.0801C35.5172 28.3473 35.8716 28.0051 35.8716 27.583C35.8716 25.5543 34.7984 23.7632 33.1715 22.7109C32.295 23.5191 31.1082 24.016 29.8035 24.016C28.4988 24.016 27.312 23.5191 26.4355 22.7109C24.8086 23.7632 23.7354 25.5543 23.7354 27.583C23.7354 28.0051 24.0897 28.3473 24.5268 28.3473Z" fill="#969696"/>
<path d="M29.8038 22.4872C31.6251 22.4872 33.1017 21.0614 33.1017 19.3025C33.1017 17.5436 31.6251 16.1177 29.8038 16.1177C27.9824 16.1177 26.5059 17.5436 26.5059 19.3025C26.5059 21.0614 27.9824 22.4872 29.8038 22.4872Z" fill="#969696"/>
</svg>
