<svg width="61" height="59" viewBox="0 0 61 59" fill="none" xmlns="http://www.w3.org/2000/svg">
<path d="M59.3668 22.7667C59.6426 23.9552 59.8433 25.1713 59.9639 26.4102L59.3667 26.4683C59.4535 27.3598 59.4979 28.2635 59.4979 29.1775C59.4979 30.0914 59.4535 30.9951 59.3667 31.8867L59.9639 31.9448C59.8433 33.1837 59.6426 34.3998 59.3668 35.5883L58.7823 35.4526C58.3696 37.2312 57.7852 38.9465 57.0467 40.5814L57.5936 40.8284C57.0852 41.954 56.5053 43.0421 55.8597 44.0874L55.3492 43.7721C54.3979 45.3123 53.3004 46.7578 52.0752 48.0904L52.5169 48.4965C51.6847 49.4016 50.7951 50.2555 49.8534 51.0528L49.4657 50.5949C48.0911 51.7588 46.6033 52.7997 45.0205 53.6999L45.3171 54.2214C44.2522 54.8271 43.1451 55.3703 42.0013 55.8459L41.7709 55.2919C40.1182 55.9792 38.3869 56.5224 36.5937 56.9054L36.719 57.4922C35.5272 57.7467 34.3087 57.9319 33.0682 58.0431L33.0147 57.4455C32.121 57.5256 31.2154 57.5665 30.2999 57.5665C29.3844 57.5665 28.4789 57.5256 27.5852 57.4455L27.5317 58.0431C26.2911 57.9319 25.0726 57.7467 23.8809 57.4922L24.0062 56.9054C22.213 56.5224 20.4817 55.9792 18.8289 55.2919L18.5986 55.8459C17.4547 55.3703 16.3477 54.8271 15.2827 54.2214L15.5794 53.6999C13.9966 52.7997 12.5088 51.7588 11.1342 50.5949L10.7465 51.0528C9.80482 50.2555 8.91512 49.4016 8.08301 48.4965L8.5247 48.0904C7.29949 46.7578 6.20197 45.3123 5.25063 43.7721L4.74016 44.0874C4.09452 43.0421 3.51471 41.954 3.00631 40.8284L3.55312 40.5814C2.81467 38.9465 2.23023 37.2312 1.81754 35.4527L1.23307 35.5883C0.957296 34.3998 0.75656 33.1837 0.635963 31.9448L1.23314 31.8867C1.14635 30.9951 1.10195 30.0914 1.10195 29.1775C1.10195 28.2635 1.14635 27.3598 1.23314 26.4683L0.635963 26.4102C0.756559 25.1713 0.957295 23.9552 1.23307 22.7667L1.81754 22.9023C2.23023 21.1238 2.81467 19.4085 3.55312 17.7736L3.00631 17.5266C3.51471 16.401 4.09452 15.3129 4.74015 14.2676L5.25063 14.5829C6.20197 13.0427 7.29949 11.5972 8.52469 10.2646L8.083 9.85849C8.91512 8.95342 9.80481 8.09951 10.7465 7.3022L11.1342 7.76011C12.5088 6.59622 13.9966 5.55531 15.5794 4.65511L15.2827 4.13356C16.3477 3.52788 17.4547 2.98466 18.5986 2.50904L18.8289 3.06305C20.4817 2.37581 22.213 1.83256 24.0062 1.44956L23.8809 0.862793C25.0726 0.608244 26.2911 0.423094 27.5317 0.311918L27.5852 0.909522C28.4789 0.829427 29.3844 0.788477 30.2999 0.788477C31.2154 0.788477 32.1209 0.829427 33.0147 0.909522L33.0682 0.311917C34.3087 0.423094 35.5272 0.608244 36.719 0.862792L36.5937 1.44956C38.3869 1.83256 40.1182 2.37581 41.7709 3.06305L42.0013 2.50904C43.1451 2.98465 44.2522 3.52788 45.3171 4.13356L45.0205 4.65511C46.6033 5.55531 48.0911 6.59621 49.4657 7.76011L49.8534 7.3022C50.795 8.09951 51.6847 8.95342 52.5169 9.85848L52.0752 10.2646C53.3004 11.5972 54.3979 13.0427 55.3492 14.5829L55.8597 14.2676C56.5053 15.3129 57.0852 16.401 57.5936 17.5266L57.0467 17.7736C57.7852 19.4085 58.3696 21.1238 58.7823 22.9023L59.3668 22.7667Z" fill="white" stroke="#969696" stroke-width="1.2" stroke-dasharray="6 4"/>
<path d="M44.6513 26.3332C44.5537 26.0329 44.2943 25.8141 43.982 25.7688L35.2075 24.4937L31.2834 16.5428C31.1437 16.2597 30.8554 16.0806 30.5398 16.0806C30.2242 16.0806 29.9359 16.2597 29.7963 16.5428L25.8719 24.4937L17.0977 25.7688C16.7854 25.8141 16.5258 26.0329 16.4283 26.3331C16.3307 26.6333 16.4121 26.9629 16.6382 27.1832L22.9871 33.3722L21.4886 42.1112C21.4352 42.4223 21.5631 42.7367 21.8184 42.9222C21.9629 43.0272 22.134 43.0806 22.3059 43.0806C22.4379 43.0806 22.5704 43.0491 22.6916 42.9853L30.5398 38.8592L38.3876 42.9853C38.667 43.1321 39.0055 43.1077 39.2609 42.9222C39.5162 42.7367 39.6442 42.4222 39.5908 42.1111L38.0918 33.3722L44.4415 27.1831C44.6675 26.9629 44.7489 26.6333 44.6513 26.3332Z" fill="#969696"/>
</svg>
