<svg width="61" height="59" viewBox="0 0 61 59" fill="none" xmlns="http://www.w3.org/2000/svg">
<path d="M59.7633 22.8478C60.0391 24.0362 60.2398 25.2524 60.3604 26.4912L59.7632 26.5493C59.85 27.4409 59.8944 28.3446 59.8944 29.2585C59.8944 30.1725 59.85 31.0762 59.7632 31.9677L60.3604 32.0259C60.2398 33.2647 60.0391 34.4809 59.7633 35.6693L59.1788 35.5337C58.7661 37.3122 58.1817 39.0276 57.4432 40.6625L57.99 40.9094C57.4816 42.035 56.9018 43.1232 56.2562 44.1684L55.7457 43.8531C54.7944 45.3933 53.6969 46.8388 52.4717 48.1715L52.9133 48.5775C52.0812 49.4826 51.1915 50.3365 50.2499 51.1338L49.8622 50.6759C48.4875 51.8398 46.9998 52.8807 45.417 53.7809L45.7136 54.3025C44.6487 54.9081 43.5416 55.4514 42.3978 55.927L42.1674 55.373C40.5146 56.0602 38.7834 56.6035 36.9902 56.9865L37.1155 57.5732C35.9237 57.8278 34.7052 58.0129 33.4647 58.1241L33.4111 57.5265C32.5174 57.6066 31.6119 57.6476 30.6964 57.6476C29.7809 57.6476 28.8754 57.6066 27.9817 57.5265L27.9281 58.1241C26.6876 58.0129 25.4691 57.8278 24.2773 57.5732L24.4027 56.9865C22.6095 56.6035 20.8782 56.0602 19.2254 55.373L18.9951 55.927C17.8512 55.4514 16.7442 54.9081 15.6792 54.3025L15.9759 53.7809C14.3931 52.8807 12.9053 51.8398 11.5307 50.6759L11.143 51.1338C10.2013 50.3365 9.31161 49.4826 8.47949 48.5775L8.92118 48.1715C7.69598 46.8389 6.59845 45.3933 5.64711 43.8531L5.13664 44.1684C4.491 43.1232 3.9112 42.035 3.4028 40.9095L3.94961 40.6625C3.21116 39.0276 2.62672 37.3122 2.21403 35.5337L1.62956 35.6693C1.35378 34.4809 1.15304 33.2647 1.03245 32.0259L1.62963 31.9677C1.54284 31.0762 1.49844 30.1725 1.49844 29.2585C1.49844 28.3446 1.54284 27.4409 1.62962 26.5494L1.03245 26.4912C1.15304 25.2524 1.35378 24.0362 1.62956 22.8478L2.21403 22.9834C2.62672 21.2049 3.21115 19.4895 3.94961 17.8546L3.4028 17.6076C3.91119 16.4821 4.491 15.3939 5.13664 14.3486L5.64711 14.6639C6.59845 13.1238 7.69598 11.6782 8.92118 10.3456L8.47949 9.93954C9.31161 9.03448 10.2013 8.18057 11.143 7.38326L11.5307 7.84116C12.9053 6.67727 14.3931 5.63637 15.9759 4.73617L15.6792 4.21462C16.7442 3.60894 17.8512 3.06571 18.995 2.59009L19.2254 3.14411C20.8782 2.45687 22.6095 1.91362 24.4027 1.53061L24.2773 0.943847C25.4691 0.689299 26.6876 0.504149 27.9281 0.392972L27.9817 0.990577C28.8754 0.910482 29.7809 0.869531 30.6964 0.869531C31.6119 0.869531 32.5174 0.910482 33.4111 0.990577L33.4647 0.392972C34.7052 0.504148 35.9237 0.689298 37.1155 0.943847L36.9902 1.53061C38.7833 1.91362 40.5146 2.45687 42.1674 3.14411L42.3978 2.59009C43.5416 3.06571 44.6487 3.60894 45.7136 4.21462L45.417 4.73616C46.9998 5.63637 48.4875 6.67727 49.8622 7.84116L50.2499 7.38325C51.1915 8.18056 52.0812 9.03448 52.9133 9.93954L52.4717 10.3456C53.6969 11.6782 54.7944 13.1237 55.7457 14.6639L56.2562 14.3486C56.9018 15.3939 57.4816 16.4821 57.99 17.6076L57.4432 17.8546C58.1817 19.4895 58.7661 21.2049 59.1788 22.9834L59.7633 22.8478Z" fill="white" stroke="#969696" stroke-width="1.2" stroke-dasharray="6 4"/>
<g clip-path="url(#clip0_2_17443)">
<path d="M27.9436 38.4229L26.6074 37.7368L26.9968 40.5334C27.1328 40.5861 27.2739 40.6119 27.4135 40.6119C27.834 40.6119 28.2396 40.3821 28.4449 39.9824C28.7371 39.4134 28.5127 38.7152 27.9436 38.4229V38.4229Z" fill="#969696"/>
<path d="M28.2787 24.5679L28.8348 24.4434L32.196 22.4177C32.4381 22.2719 32.7133 22.1918 32.995 22.1828C32.8202 21.9965 32.6708 21.7847 32.5531 21.5523L30.7522 22.8154H28.3826H27.4145C27.3422 22.8154 27.2718 22.8231 27.2038 22.8374C27.1898 22.8367 27.1759 22.8356 27.1618 22.8356C27.1082 22.8356 27.054 22.8405 26.9995 22.8507L24.4318 23.3284C23.8266 22.6326 23.2126 21.9269 22.6047 21.228L24.3843 17.7554C24.6413 17.2541 24.4431 16.6395 23.9418 16.3825C23.4405 16.1255 22.8259 16.3237 22.5689 16.825L20.4746 20.9117C20.2845 21.2826 20.3392 21.7319 20.6127 22.0463C21.1546 22.6693 22.4249 24.1295 22.9995 24.7901L24.329 31.9358C23.9568 32.4621 21.6839 35.6766 21.3462 36.1542C20.9392 36.7296 21.137 37.5321 21.7628 37.8534L23.0265 38.5023L22.7793 36.7266C22.7828 36.6747 22.5747 35.9788 23.1374 35.3654L26.0938 32.5108L23.6546 35.7899C23.4762 36.0329 23.3998 36.3359 23.4413 36.6344L24.2262 42.2719C24.3139 42.902 24.8959 43.3474 25.5327 43.2589C26.166 43.1707 26.6079 42.5858 26.5197 41.9525L25.7996 36.7806L29.135 32.2531C29.5484 31.6921 29.6991 30.9797 29.5483 30.2994L28.2787 24.5679Z" fill="#969696"/>
<path d="M32.0197 39.9824C32.2251 40.3822 32.6306 40.6119 33.0511 40.6119C33.1906 40.6119 33.3318 40.5861 33.4678 40.5334L33.8571 37.7368L32.521 38.4229C31.952 38.7152 31.7275 39.4134 32.0197 39.9824V39.9824Z" fill="#969696"/>
<path d="M34.9729 22.4057C35.1491 22.4057 35.3282 22.3831 35.5067 22.3359C36.6168 22.0418 37.2783 20.9036 36.9843 19.7935C36.7375 18.8618 35.896 18.2461 34.9757 18.2461C34.7995 18.2461 34.6203 18.2686 34.4419 18.3159C33.3319 18.6099 32.6703 19.7482 32.9644 20.8583C33.2111 21.79 34.0525 22.4057 34.9729 22.4057V22.4057Z" fill="#969696"/>
<path d="M41.6393 18.6514C41.0998 18.5296 40.564 18.8755 40.4231 19.4103L39.4351 23.1599C38.8972 23.2268 37.3938 23.4136 36.8449 23.4818C36.8395 23.4805 33.41 22.8163 33.0476 22.8163C32.869 22.8163 32.6882 22.863 32.524 22.9619L29.0166 25.0537L29.4635 27.0441L29.6821 26.9951C29.7891 26.9711 29.8916 26.9301 29.9856 26.8734L31.958 25.6848L30.9146 30.313C30.7635 30.9835 30.9109 31.6865 31.3187 32.2397L34.6655 36.7808L33.9491 41.9258C33.862 42.5513 34.2776 43.1505 34.9006 43.2542C34.9655 43.265 35.03 43.2702 35.0936 43.2702C35.6621 43.2702 36.1582 42.8511 36.2388 42.272L37.0238 36.6345C37.0653 36.336 36.9888 36.033 36.8105 35.79L34.1947 32.2224L37.3276 35.3655C37.64 35.6891 37.7674 36.1232 37.7123 36.5369L37.6858 36.7267L37.4385 38.5024L38.7022 37.8535C39.0008 37.7002 39.2182 37.4249 39.2981 37.099C39.3781 36.773 39.3126 36.4284 39.1189 36.1543L36.1141 31.5747L37.3167 25.4788C38.0781 25.3842 38.4855 25.3335 40.3713 25.0992C40.7849 25.0478 41.1257 24.7499 41.2318 24.3469L42.4019 19.9064C42.5485 19.3497 42.2056 18.7792 41.6393 18.6514V18.6514Z" fill="#969696"/>
<path d="M25.949 22.3995C26.9245 22.4687 27.8438 21.8399 28.1039 20.8578C28.398 19.7477 27.7364 18.6095 26.6263 18.3154C25.5163 18.0214 24.378 18.6829 24.084 19.793C23.7494 21.0564 24.6483 22.3072 25.949 22.3995V22.3995Z" fill="#969696"/>
</g>
<defs>
<clipPath id="clip0_2_17443">
<rect width="27" height="27" fill="white" transform="translate(17.8984 16.2695)"/>
</clipPath>
</defs>
</svg>
