<svg width="61" height="59" viewBox="0 0 61 59" fill="none" xmlns="http://www.w3.org/2000/svg">
<path d="M59.7633 22.8038C60.0391 23.9923 60.2398 25.2084 60.3604 26.4473L59.7632 26.5054C59.85 27.3969 59.8944 28.3006 59.8944 29.2146C59.8944 30.1286 59.85 31.0323 59.7632 31.9238L60.3604 31.9819C60.2398 33.2208 60.0391 34.4369 59.7633 35.6254L59.1788 35.4898C58.7661 37.2683 58.1817 38.9836 57.4432 40.6185L57.99 40.8655C57.4816 41.9911 56.9018 43.0792 56.2562 44.1245L55.7457 43.8092C54.7944 45.3494 53.6969 46.7949 52.4717 48.1275L52.9133 48.5336C52.0812 49.4387 51.1915 50.2926 50.2499 51.0899L49.8622 50.632C48.4875 51.7959 46.9998 52.8368 45.417 53.737L45.7136 54.2585C44.6487 54.8642 43.5416 55.4074 42.3978 55.883L42.1674 55.329C40.5146 56.0163 38.7834 56.5595 36.9902 56.9425L37.1155 57.5293C35.9237 57.7838 34.7052 57.969 33.4647 58.0802L33.4111 57.4826C32.5174 57.5627 31.6119 57.6036 30.6964 57.6036C29.7809 57.6036 28.8754 57.5627 27.9817 57.4826L27.9281 58.0802C26.6876 57.969 25.4691 57.7838 24.2773 57.5293L24.4027 56.9425C22.6095 56.5595 20.8782 56.0163 19.2254 55.329L18.9951 55.883C17.8512 55.4074 16.7442 54.8642 15.6792 54.2585L15.9759 53.737C14.3931 52.8368 12.9053 51.7959 11.5307 50.632L11.143 51.0899C10.2013 50.2926 9.31161 49.4387 8.47949 48.5336L8.92118 48.1275C7.69598 46.7949 6.59845 45.3494 5.64711 43.8092L5.13664 44.1245C4.491 43.0792 3.9112 41.9911 3.4028 40.8655L3.94961 40.6185C3.21116 38.9836 2.62672 37.2683 2.21403 35.4898L1.62956 35.6254C1.35378 34.4369 1.15304 33.2208 1.03245 31.9819L1.62963 31.9238C1.54284 31.0323 1.49844 30.1286 1.49844 29.2146C1.49844 28.3006 1.54284 27.3969 1.62962 26.5054L1.03245 26.4473C1.15304 25.2084 1.35378 23.9923 1.62956 22.8038L2.21403 22.9394C2.62672 21.1609 3.21115 19.4456 3.94961 17.8107L3.4028 17.5637C3.91119 16.4381 4.491 15.35 5.13664 14.3047L5.64711 14.62C6.59845 13.0798 7.69598 11.6343 8.92118 10.3017L8.47949 9.8956C9.31161 8.99053 10.2013 8.13662 11.143 7.33931L11.5307 7.79722C12.9053 6.63333 14.3931 5.59242 15.9759 4.69222L15.6792 4.17067C16.7442 3.56499 17.8512 3.02176 18.995 2.54615L19.2254 3.10016C20.8782 2.41292 22.6095 1.86967 24.4027 1.48667L24.2773 0.899902C25.4691 0.645354 26.6876 0.460204 27.9281 0.349027L27.9817 0.946632C28.8754 0.866537 29.7809 0.825586 30.6964 0.825586C31.6119 0.825586 32.5174 0.866537 33.4111 0.946631L33.4647 0.349026C34.7052 0.460203 35.9237 0.645353 37.1155 0.899901L36.9902 1.48667C38.7833 1.86967 40.5146 2.41292 42.1674 3.10016L42.3978 2.54615C43.5416 3.02176 44.6487 3.56499 45.7136 4.17067L45.417 4.69222C46.9998 5.59242 48.4875 6.63332 49.8622 7.79722L50.2499 7.33931C51.1915 8.13662 52.0812 8.99053 52.9133 9.89559L52.4717 10.3017C53.6969 11.6343 54.7944 13.0798 55.7457 14.62L56.2562 14.3047C56.9018 15.35 57.4816 16.4381 57.99 17.5637L57.4432 17.8107C58.1817 19.4456 58.7661 21.1609 59.1788 22.9394L59.7633 22.8038Z" fill="white" stroke="#969696" stroke-width="1.2" stroke-dasharray="6 4"/>
<g clip-path="url(#clip0_2_17460)">
<path d="M26.3289 36.3379C25.4528 37.1743 24.2668 37.6885 22.9629 37.6885C21.659 37.6885 20.4729 37.1743 19.5969 36.3379C17.9711 37.4269 16.8984 39.2804 16.8984 41.3799V42.4346C16.8984 42.8715 17.2526 43.2256 17.6895 43.2256H28.2363C28.6732 43.2256 29.0273 42.8715 29.0273 42.4346V41.3799C29.0273 39.2804 27.9547 37.4269 26.3289 36.3379Z" fill="#969696"/>
<path d="M22.9629 36.1064C21.1455 36.1064 19.667 34.6279 19.667 32.8105C19.667 30.9932 21.1455 29.5146 22.9629 29.5146C24.7803 29.5146 26.2588 30.9932 26.2588 32.8105C26.2588 34.6279 24.7803 36.1064 22.9629 36.1064Z" fill="#969696"/>
<path d="M35.7764 23.6084C36.3589 23.6084 36.8311 23.1362 36.8311 22.5537C36.8311 21.9712 36.3589 21.499 35.7764 21.499C35.1939 21.499 34.7217 21.9712 34.7217 22.5537C34.7217 23.1362 35.1939 23.6084 35.7764 23.6084Z" fill="#969696"/>
<path d="M35.7761 25.1904C34.4509 25.1904 33.3305 26.0837 32.9854 27.2998H38.5669C38.2217 26.0837 37.1013 25.1904 35.7761 25.1904Z" fill="#969696"/>
<path d="M43.3346 20.5751C42.5384 19.2009 41.0537 18.4132 39.5031 18.4898C38.7932 17.1129 37.3673 16.2256 35.7762 16.2256C34.1851 16.2256 32.7591 17.1129 32.0493 18.4898C30.4972 18.413 29.0137 19.2011 28.2177 20.5752C27.4214 21.9496 27.4788 23.625 28.3199 24.9268C27.4788 26.2286 27.4214 27.904 28.2177 29.2785C29.0138 30.6527 30.4973 31.4405 32.0493 31.3638C32.7591 32.7406 34.1851 33.6279 35.7762 33.6279C37.3673 33.6279 38.7933 32.7406 39.5031 31.3637C39.5721 31.367 39.6409 31.3688 39.7096 31.3688C41.1847 31.3686 42.574 30.5913 43.3346 29.2783C44.1309 27.9039 44.0735 26.2285 43.2324 24.9267C44.0735 23.625 44.1309 21.9496 43.3346 20.5751ZM39.4676 28.8818H32.0847C31.6479 28.8818 31.2937 28.5277 31.2937 28.0908C31.2937 26.3807 32.2567 24.8917 33.6686 24.1362C33.3366 23.6951 33.1394 23.147 33.1394 22.5537C33.1394 21.0998 34.3223 19.917 35.7762 19.917C37.23 19.917 38.4129 21.0998 38.4129 22.5537C38.4129 23.147 38.2158 23.6951 37.8837 24.1362C39.2956 24.8917 40.2586 26.3807 40.2586 28.0908C40.2586 28.5277 39.9044 28.8818 39.4676 28.8818Z" fill="#969696"/>
<path d="M31.1367 40.7471C31.5736 40.7471 31.9277 40.3929 31.9277 39.9561C31.9277 39.5192 31.5736 39.165 31.1367 39.165C30.6999 39.165 30.3457 39.5192 30.3457 39.9561C30.3457 40.3929 30.6999 40.7471 31.1367 40.7471Z" fill="#969696"/>
<path d="M35.7246 39.9561C34.4161 39.9561 33.3516 38.8915 33.3516 37.583C33.3516 36.2745 34.4161 35.21 35.7246 35.21C37.0331 35.21 38.0977 36.2745 38.0977 37.583C38.0977 38.8915 37.0331 39.9561 35.7246 39.9561Z" fill="#969696"/>
</g>
<defs>
<clipPath id="clip0_2_17460">
<rect width="27" height="27" fill="white" transform="translate(16.8984 16.2256)"/>
</clipPath>
</defs>
</svg>
