<svg width="61" height="59" viewBox="0 0 61 59" fill="none" xmlns="http://www.w3.org/2000/svg">
<path d="M59.7633 22.7667C60.0391 23.9552 60.2398 25.1713 60.3604 26.4102L59.7632 26.4683C59.85 27.3598 59.8944 28.2635 59.8944 29.1775C59.8944 30.0914 59.85 30.9951 59.7632 31.8867L60.3604 31.9448C60.2398 33.1837 60.0391 34.3998 59.7633 35.5883L59.1788 35.4526C58.7661 37.2312 58.1817 38.9465 57.4432 40.5814L57.99 40.8284C57.4816 41.954 56.9018 43.0421 56.2562 44.0874L55.7457 43.7721C54.7944 45.3123 53.6969 46.7578 52.4717 48.0904L52.9133 48.4965C52.0812 49.4016 51.1915 50.2555 50.2499 51.0528L49.8622 50.5949C48.4875 51.7588 46.9998 52.7997 45.417 53.6999L45.7136 54.2214C44.6487 54.8271 43.5416 55.3703 42.3978 55.8459L42.1674 55.2919C40.5146 55.9792 38.7834 56.5224 36.9902 56.9054L37.1155 57.4922C35.9237 57.7467 34.7052 57.9319 33.4647 58.0431L33.4111 57.4455C32.5174 57.5256 31.6119 57.5665 30.6964 57.5665C29.7809 57.5665 28.8754 57.5256 27.9817 57.4455L27.9281 58.0431C26.6876 57.9319 25.4691 57.7467 24.2773 57.4922L24.4027 56.9054C22.6095 56.5224 20.8782 55.9792 19.2254 55.2919L18.9951 55.8459C17.8512 55.3703 16.7442 54.8271 15.6792 54.2214L15.9759 53.6999C14.3931 52.7997 12.9053 51.7588 11.5307 50.5949L11.143 51.0528C10.2013 50.2555 9.31161 49.4016 8.47949 48.4965L8.92118 48.0904C7.69598 46.7578 6.59845 45.3123 5.64711 43.7721L5.13664 44.0874C4.491 43.0421 3.9112 41.954 3.4028 40.8284L3.94961 40.5814C3.21116 38.9465 2.62672 37.2312 2.21403 35.4527L1.62956 35.5883C1.35378 34.3998 1.15304 33.1837 1.03245 31.9448L1.62963 31.8867C1.54284 30.9951 1.49844 30.0914 1.49844 29.1775C1.49844 28.2635 1.54284 27.3598 1.62962 26.4683L1.03245 26.4102C1.15304 25.1713 1.35378 23.9552 1.62956 22.7667L2.21403 22.9023C2.62672 21.1238 3.21115 19.4085 3.94961 17.7736L3.4028 17.5266C3.91119 16.401 4.491 15.3129 5.13664 14.2676L5.64711 14.5829C6.59845 13.0427 7.69598 11.5972 8.92118 10.2646L8.47949 9.85849C9.31161 8.95342 10.2013 8.09951 11.143 7.3022L11.5307 7.76011C12.9053 6.59622 14.3931 5.55531 15.9759 4.65511L15.6792 4.13356C16.7442 3.52788 17.8512 2.98466 18.995 2.50904L19.2254 3.06305C20.8782 2.37581 22.6095 1.83256 24.4027 1.44956L24.2773 0.862793C25.4691 0.608244 26.6876 0.423094 27.9281 0.311918L27.9817 0.909522C28.8754 0.829427 29.7809 0.788477 30.6964 0.788477C31.6119 0.788477 32.5174 0.829427 33.4111 0.909522L33.4647 0.311917C34.7052 0.423094 35.9237 0.608244 37.1155 0.862792L36.9902 1.44956C38.7833 1.83256 40.5146 2.37581 42.1674 3.06305L42.3978 2.50904C43.5416 2.98465 44.6487 3.52788 45.7136 4.13356L45.417 4.65511C46.9998 5.55531 48.4875 6.59621 49.8622 7.76011L50.2499 7.3022C51.1915 8.09951 52.0812 8.95342 52.9133 9.85848L52.4717 10.2646C53.6969 11.5972 54.7944 13.0427 55.7457 14.5829L56.2562 14.2676C56.9018 15.3129 57.4816 16.401 57.99 17.5266L57.4432 17.7736C58.1817 19.4085 58.7661 21.1238 59.1788 22.9023L59.7633 22.7667Z" fill="white" stroke="#969696" stroke-width="1.2" stroke-dasharray="6 4"/>
<g clip-path="url(#clip0_2_17483)">
<path d="M35.9148 28.5066C35.8515 28.2393 35.6553 28.0245 35.395 27.938L31.514 26.6441L34.2702 21.1318C34.4433 20.7849 34.3397 20.3632 34.0253 20.136C33.7094 19.9097 33.2768 19.9437 33.0033 20.2187L25.0932 28.1288C24.8993 28.3227 24.8197 28.6031 24.8823 28.8696C24.9456 29.1369 25.1419 29.3517 25.4022 29.4382L29.2831 30.732L26.5269 36.2444C26.3539 36.5913 26.4574 37.013 26.7718 37.2402C27.0867 37.4658 27.5184 37.4328 27.7938 37.1575L35.7039 29.2474C35.8978 29.0535 35.9774 28.7731 35.9148 28.5066Z" fill="#969696"/>
<path d="M30.3984 15.1885C26.3838 15.1885 22.5917 17.0556 20.0625 20.0679V19.1963C20.0625 18.7591 19.7087 18.4053 19.2715 18.4053C18.8343 18.4053 18.4805 18.7591 18.4805 19.1963V22.5566C18.4805 23.3115 19.4555 23.4195 19.2715 23.3476C19.2877 23.3476 19.3039 23.3468 19.3202 23.3461L22.4842 23.1498C22.9207 23.1228 23.2521 22.7474 23.225 22.3117C23.198 21.876 22.8172 21.5477 22.3869 21.5709L20.7841 21.6705C23.0042 18.6505 26.5963 16.7705 30.3984 16.7705C36.9413 16.7705 42.3164 22.1456 42.3164 28.6885C42.3164 29.1257 42.6702 29.4795 43.1074 29.4795C43.5446 29.4795 43.8984 29.1257 43.8984 28.6885C43.8984 21.2735 37.8134 15.1885 30.3984 15.1885Z" fill="#969696"/>
<path d="M41.4767 34.0309L38.3127 34.2271C37.8762 34.2542 37.5448 34.6296 37.5718 35.0653C37.5989 35.501 37.9882 35.8331 38.41 35.8061L40.0128 35.7064C37.7927 38.7264 34.2006 40.6064 30.3984 40.6064C23.8556 40.6064 18.4805 35.2313 18.4805 28.6885C18.4805 28.2513 18.1267 27.8975 17.6895 27.8975C17.2522 27.8975 16.8984 28.2513 16.8984 28.6885C16.8984 36.1035 22.9835 42.1885 30.3984 42.1885C34.4131 42.1885 38.2052 40.3214 40.7344 37.309V38.1807C40.7344 38.6179 41.0882 38.9717 41.5254 38.9717C41.9626 38.9717 42.3164 38.6179 42.3164 38.1807V34.8204C42.3164 34.3858 41.8998 34.0071 41.4767 34.0309Z" fill="#969696"/>
</g>
<defs>
<clipPath id="clip0_2_17483">
<rect width="27" height="27" fill="white" transform="translate(16.8984 15.1885)"/>
</clipPath>
</defs>
</svg>
