<svg width="61" height="59" viewBox="0 0 61 59" fill="none" xmlns="http://www.w3.org/2000/svg">
<path d="M59.3727 22.8478C59.6484 24.0362 59.8492 25.2524 59.9698 26.4912L59.3726 26.5493C59.4594 27.4409 59.5038 28.3446 59.5038 29.2585C59.5038 30.1725 59.4594 31.0762 59.3726 31.9677L59.9698 32.0259C59.8492 33.2647 59.6484 34.4809 59.3727 35.6693L58.7882 35.5337C58.3755 37.3122 57.7911 39.0276 57.0526 40.6625L57.5994 40.9094C57.091 42.035 56.5112 43.1232 55.8656 44.1684L55.3551 43.8531C54.4038 45.3933 53.3062 46.8388 52.081 48.1715L52.5227 48.5775C51.6906 49.4826 50.8009 50.3365 49.8592 51.1338L49.4715 50.6759C48.0969 51.8398 46.6091 52.8807 45.0264 53.7809L45.323 54.3025C44.258 54.9081 43.151 55.4514 42.0072 55.927L41.7768 55.373C40.124 56.0602 38.3927 56.6035 36.5995 56.9865L36.7249 57.5732C35.5331 57.8278 34.3146 58.0129 33.0741 58.1241L33.0205 57.5265C32.1268 57.6066 31.2213 57.6476 30.3058 57.6476C29.3903 57.6476 28.4848 57.6066 27.5911 57.5265L27.5375 58.1241C26.297 58.0129 25.0785 57.8278 23.8867 57.5732L24.0121 56.9865C22.2189 56.6035 20.4876 56.0602 18.8348 55.373L18.6044 55.927C17.4606 55.4514 16.3535 54.9081 15.2886 54.3025L15.5852 53.7809C14.0024 52.8807 12.5147 51.8398 11.1401 50.6759L10.7523 51.1338C9.81068 50.3365 8.92098 49.4826 8.08887 48.5775L8.53056 48.1715C7.30535 46.8389 6.20783 45.3933 5.25649 43.8531L4.74602 44.1684C4.10038 43.1232 3.52057 42.035 3.01217 40.9095L3.55898 40.6625C2.82053 39.0276 2.23609 37.3122 1.8234 35.5337L1.23893 35.6693C0.963155 34.4809 0.762419 33.2647 0.641823 32.0259L1.239 31.9677C1.15221 31.0762 1.10781 30.1725 1.10781 29.2585C1.10781 28.3446 1.15221 27.4409 1.239 26.5494L0.641822 26.4912C0.762418 25.2524 0.963154 24.0362 1.23893 22.8478L1.8234 22.9834C2.23609 21.2049 2.82053 19.4895 3.55898 17.8546L3.01217 17.6076C3.52057 16.4821 4.10038 15.3939 4.74602 14.3486L5.25649 14.6639C6.20783 13.1238 7.30535 11.6782 8.53055 10.3456L8.08886 9.93954C8.92098 9.03448 9.81067 8.18057 10.7523 7.38326L11.14 7.84116C12.5147 6.67727 14.0024 5.63637 15.5852 4.73617L15.2886 4.21462C16.3535 3.60894 17.4606 3.06571 18.6044 2.59009L18.8348 3.14411C20.4876 2.45687 22.2189 1.91362 24.012 1.53061L23.8867 0.943847C25.0785 0.689299 26.297 0.504149 27.5375 0.392972L27.5911 0.990577C28.4848 0.910482 29.3903 0.869531 30.3058 0.869531C31.2213 0.869531 32.1268 0.910482 33.0205 0.990577L33.0741 0.392972C34.3146 0.504148 35.5331 0.689298 36.7249 0.943847L36.5995 1.53061C38.3927 1.91362 40.124 2.45687 41.7768 3.14411L42.0072 2.59009C43.151 3.06571 44.258 3.60894 45.323 4.21462L45.0264 4.73616C46.6091 5.63637 48.0969 6.67727 49.4715 7.84116L49.8592 7.38325C50.8009 8.18056 51.6906 9.03448 52.5227 9.93954L52.081 10.3456C53.3062 11.6782 54.4038 13.1237 55.3551 14.6639L55.8656 14.3486C56.5112 15.3939 57.091 16.4821 57.5994 17.6076L57.0526 17.8546C57.7911 19.4895 58.3755 21.2049 58.7882 22.9834L59.3727 22.8478Z" fill="white" stroke="#DD4053" stroke-width="1.2" stroke-dasharray="6 4"/>
<path d="M37.3198 17.1261C36.6275 16.4745 35.7415 16.1616 34.8485 16.1616C33.8434 16.1616 32.8282 16.5579 32.0714 17.3158L31.7466 17.6406L31.4218 17.3148C30.6649 16.5579 29.6498 16.1616 28.6446 16.1616C27.7517 16.1616 26.8657 16.4745 26.1734 17.1261C24.6507 18.5594 24.6239 20.9571 26.0919 22.4252L31.7466 28.0798L37.4012 22.4252C38.8693 20.9571 38.8425 18.5594 37.3198 17.1261Z" fill="#DD4053"/>
<path d="M42.8701 30.9593C42.001 30.3703 40.977 30.5372 40.0701 31.0607C39.1633 31.5841 33.9565 36.0359 33.9565 36.0359L28.8313 36.0369C28.5929 36.0369 28.3346 35.7687 28.3346 35.5313C28.3346 35.2522 28.578 35.0347 28.8313 35.0347H31.967C33.0646 35.0347 34.2933 34.3196 34.2933 33.0482C34.2933 31.6973 33.0646 31.0616 31.967 31.0616C30.0629 31.0616 29.6924 31.0696 29.6924 31.0696C28.9296 31.0696 28.1558 31.0239 27.5599 30.7051C26.7653 30.2978 25.8495 30.0674 24.8721 30.0674C23.2312 30.0674 21.7622 30.7219 20.755 31.754L15.4062 37.0203L21.3659 42.9799L23.3524 40.9933H33.4112C34.4125 40.9933 35.3789 40.6258 36.1268 39.9613L42.9377 32.3211C43.3539 31.9516 43.33 31.2722 42.8701 30.9593Z" fill="#DD4053"/>
</svg>
